<mxfile host="app.diagrams.net" modified="2021-06-06T03:07:01.983Z" agent="5.0 (Windows NT 10.0; Win64; x64) AppleWebKit/537.36 (KHTML, like Gecko) Chrome/91.0.4472.77 Safari/537.36" etag="K242S4XRH2U1a2kdGC5D" version="14.7.0" type="github">
  <diagram id="XLJMUqHiTXPoUTxL7cdy" name="Page-1">
    <mxGraphModel dx="1422" dy="772" grid="1" gridSize="10" guides="1" tooltips="1" connect="1" arrows="1" fold="1" page="1" pageScale="1" pageWidth="827" pageHeight="1169" math="0" shadow="0">
      <root>
        <mxCell id="0" />
        <mxCell id="1" parent="0" />
        <mxCell id="1S2QTwo0giWLdl-as3Fp-15" style="edgeStyle=orthogonalEdgeStyle;rounded=0;orthogonalLoop=1;jettySize=auto;html=1;" edge="1" parent="1" source="1S2QTwo0giWLdl-as3Fp-2" target="1S2QTwo0giWLdl-as3Fp-9">
          <mxGeometry relative="1" as="geometry" />
        </mxCell>
        <mxCell id="1S2QTwo0giWLdl-as3Fp-16" style="edgeStyle=orthogonalEdgeStyle;rounded=0;orthogonalLoop=1;jettySize=auto;html=1;entryX=0;entryY=0.5;entryDx=0;entryDy=0;" edge="1" parent="1" source="1S2QTwo0giWLdl-as3Fp-2" target="1S2QTwo0giWLdl-as3Fp-8">
          <mxGeometry relative="1" as="geometry" />
        </mxCell>
        <mxCell id="1S2QTwo0giWLdl-as3Fp-17" style="edgeStyle=orthogonalEdgeStyle;rounded=0;orthogonalLoop=1;jettySize=auto;html=1;entryX=0;entryY=0.5;entryDx=0;entryDy=0;" edge="1" parent="1" source="1S2QTwo0giWLdl-as3Fp-2" target="1S2QTwo0giWLdl-as3Fp-10">
          <mxGeometry relative="1" as="geometry" />
        </mxCell>
        <mxCell id="1S2QTwo0giWLdl-as3Fp-2" value="第一章" style="rounded=0;whiteSpace=wrap;html=1;fillColor=#EDF505;" vertex="1" parent="1">
          <mxGeometry x="30" y="391" width="120" height="60" as="geometry" />
        </mxCell>
        <mxCell id="1S2QTwo0giWLdl-as3Fp-4" value="第二章" style="rounded=0;whiteSpace=wrap;html=1;fillColor=#EDF505;" vertex="1" parent="1">
          <mxGeometry x="30" y="525" width="120" height="60" as="geometry" />
        </mxCell>
        <mxCell id="1S2QTwo0giWLdl-as3Fp-5" value="第三章" style="rounded=0;whiteSpace=wrap;html=1;fillColor=#EDF505;" vertex="1" parent="1">
          <mxGeometry x="30" y="640" width="120" height="60" as="geometry" />
        </mxCell>
        <mxCell id="1S2QTwo0giWLdl-as3Fp-6" value="第四章" style="rounded=0;whiteSpace=wrap;html=1;fillColor=#EDF505;" vertex="1" parent="1">
          <mxGeometry x="30" y="760" width="120" height="60" as="geometry" />
        </mxCell>
        <mxCell id="1S2QTwo0giWLdl-as3Fp-7" value="第五章" style="rounded=0;whiteSpace=wrap;html=1;fillColor=#EDF505;" vertex="1" parent="1">
          <mxGeometry x="30" y="870" width="120" height="60" as="geometry" />
        </mxCell>
        <mxCell id="1S2QTwo0giWLdl-as3Fp-8" value="研究背景与意义" style="rounded=1;whiteSpace=wrap;html=1;fillColor=#FFFFFF;" vertex="1" parent="1">
          <mxGeometry x="260" y="340" width="140" height="30" as="geometry" />
        </mxCell>
        <mxCell id="1S2QTwo0giWLdl-as3Fp-9" value="国内外研究现状" style="rounded=1;whiteSpace=wrap;html=1;fillColor=#FFFFFF;" vertex="1" parent="1">
          <mxGeometry x="260" y="406" width="140" height="30" as="geometry" />
        </mxCell>
        <mxCell id="1S2QTwo0giWLdl-as3Fp-10" value="研究目标和研究内容" style="rounded=1;whiteSpace=wrap;html=1;fillColor=#FFFFFF;" vertex="1" parent="1">
          <mxGeometry x="260" y="476" width="140" height="30" as="geometry" />
        </mxCell>
      </root>
    </mxGraphModel>
  </diagram>
</mxfile>
